<?xml version="1.0" encoding="UTF-8" standalone="no"?>
<!-- Generator: Adobe Illustrator 19.1.0, SVG Export Plug-In . SVG Version: 6.00 Build 0)  -->

<svg
   xmlns:dc="http://purl.org/dc/elements/1.1/"
   xmlns:cc="http://creativecommons.org/ns#"
   xmlns:rdf="http://www.w3.org/1999/02/22-rdf-syntax-ns#"
   xmlns:svg="http://www.w3.org/2000/svg"
   xmlns="http://www.w3.org/2000/svg"
   xmlns:sodipodi="http://sodipodi.sourceforge.net/DTD/sodipodi-0.dtd"
   xmlns:inkscape="http://www.inkscape.org/namespaces/inkscape"
   version="1.1"
   id="Layer_1"
   x="0px"
   y="0px"
   viewBox="195.5 285.8 219.8 219.8"
   style="enable-background:new 195.5 285.8 219.8 219.8;"
   xml:space="preserve"
   inkscape:version="0.48.4 r9939"
   width="100%"
   height="100%"
   sodipodi:docname="icon.svg"
   inkscape:export-filename="/home/ondra/.urserver/remotes/custom/ALSA/icon_hires.png"
   inkscape:export-xdpi="209.64513"
   inkscape:export-ydpi="209.64513"><metadata
     id="metadata23"><rdf:RDF><cc:Work
         rdf:about=""><dc:format>image/svg+xml</dc:format><dc:type
           rdf:resource="http://purl.org/dc/dcmitype/StillImage" /><dc:title></dc:title></cc:Work></rdf:RDF></metadata><defs
     id="defs21" /><sodipodi:namedview
     pagecolor="#ffffff"
     bordercolor="#666666"
     borderopacity="1"
     objecttolerance="10"
     gridtolerance="10"
     guidetolerance="10"
     inkscape:pageopacity="0"
     inkscape:pageshadow="2"
     inkscape:window-width="1004"
     inkscape:window-height="572"
     id="namedview19"
     showgrid="false"
     inkscape:zoom="0.75922293"
     inkscape:cx="64.16697"
     inkscape:cy="122.5446"
     inkscape:window-x="58"
     inkscape:window-y="712"
     inkscape:window-maximized="0"
     inkscape:current-layer="g5" /><style
     type="text/css"
     id="style3">
	.st0{fill:#316DB6;}
	.st1{fill:none;stroke:#FFFFFF;stroke-width:8;stroke-linecap:round;stroke-linejoin:round;stroke-miterlimit:10;}
</style><g
     id="g5"><path
       style="fill:#dc5c03;fill-opacity:1"
       d="M 305.40625,285.8 C 244.71015,285.8 195.5,335.01015 195.5,395.70625 c 0,60.6961 49.21015,109.90625 109.90625,109.90625 60.6961,0 109.90625,-49.21015 109.90625,-109.90625 C 415.3125,335.01015 366.10235,285.8 305.40625,285.8 z"
       id="path3815" /><path
       style="fill:#ffffff;fill-opacity:1"
       d="m 241.8125,341.4875 130.59375,0 a 4.0004001,4.0004001 0 0 1 4,4 l 0,96.59375 a 4.0004001,4.0004001 0 0 1 -4,4 l -18.375,0 c -1.77558,6.4785 -7.71015,11.3125 -14.71875,11.3125 -7.01242,0 -12.97084,-4.82866 -14.75,-11.3125 l -57.5625,0 a 4.0004003,4.0004003 0 1 1 0,-8 l 57.5625,0 c 1.78922,-6.46172 7.74826,-11.28125 14.75,-11.28125 7.02768,0 12.94791,4.8019 14.71875,11.28125 l 14.375,0 0,-88.59375 -122.59375,0 0,92.59375 a 4.0004001,4.0004001 0 1 1 -8,0 l 0,-96.59375 a 4.0004001,4.0004001 0 0 1 4,-4 z"
       id="path3813" /><path
       style="fill:#ffffff;fill-opacity:1"
       d="m 287.28125,363.89375 a 4.0004004,4.0004004 0 0 1 2.3125,0.53125 l 44.8125,25.90625 a 4.0004004,4.0004004 0 0 1 0,6.90625 l -44.8125,25.90625 a 4.0004004,4.0004004 0 0 1 -6,-3.46875 l 0,-51.78125 a 4.0004004,4.0004004 0 0 1 3.6875,-4 z"
       id="path3811" /><path
       style="fill:#bf7039;fill-opacity:1"
       d="m 291.59375,374.83125 0,37.9375 L 324.4375,393.8 291.59375,374.83125 z"
       id="path3809" /><path
       style="fill:#bf7039;fill-opacity:1"
       d="m 339.3125,434.8 c -3.84298,0 -7.02663,3.03085 -7.28125,6.8125 a 4.0004003,4.0004003 0 0 1 0,0.125 4.0004003,4.0004003 0 0 1 0,0.8125 c 0.001,0.0205 -0.002,0.042 0,0.0625 0.27507,3.76476 3.4523,6.78125 7.28125,6.78125 3.82895,0 6.97746,-3.01649 7.25,-6.78125 a 4.0004001,4.0004001 0 0 1 0,-0.0625 4.0004001,4.0004001 0 0 1 0,-0.9375 c -0.22111,-3.94535 -3.22345,-6.8125 -7.25,-6.8125 z"
       id="circle7" /></g></svg>